<?xml version="1.0" encoding="UTF-8"?>
<!DOCTYPE svg PUBLIC "-//W3C//DTD SVG 1.1//EN" "http://www.w3.org/Graphics/SVG/1.1/DTD/svg11.dtd">
<svg xmlns="http://www.w3.org/2000/svg" version="1.1" width="500px" height="500px" style="shape-rendering:geometricPrecision; text-rendering:geometricPrecision; image-rendering:optimizeQuality; fill-rule:evenodd; clip-rule:evenodd" xmlns:xlink="http://www.w3.org/1999/xlink">
<g><path style="opacity:1" fill="#fefefe" d="M -0.5,-0.5 C 166.167,-0.5 332.833,-0.5 499.5,-0.5C 499.5,166.167 499.5,332.833 499.5,499.5C 332.833,499.5 166.167,499.5 -0.5,499.5C -0.5,332.833 -0.5,166.167 -0.5,-0.5 Z"/></g>
<g><path style="opacity:1" fill="#ec7d14" d="M 158.5,217.5 C 156.5,217.5 154.5,217.5 152.5,217.5C 152.899,207.732 148.233,203.232 138.5,204C 135.333,205.833 132.833,208.333 131,211.5C 130.501,216.823 130.334,222.156 130.5,227.5C 128.833,227.5 127.167,227.5 125.5,227.5C 125.5,221.833 125.5,216.167 125.5,210.5C 129.234,200.13 136.567,196.297 147.5,199C 155.653,202.47 159.32,208.636 158.5,217.5 Z"/></g>
<g><path style="opacity:1" fill="#010101" d="M 124.5,217.5 C 124.5,219.5 124.5,221.5 124.5,223.5C 122.167,223.5 119.833,223.5 117.5,223.5C 116.504,239.325 116.17,255.325 116.5,271.5C 135.167,271.5 153.833,271.5 172.5,271.5C 172.5,273.167 172.5,274.833 172.5,276.5C 152.167,276.5 131.833,276.5 111.5,276.5C 111.5,256.833 111.5,237.167 111.5,217.5C 115.833,217.5 120.167,217.5 124.5,217.5 Z"/></g>
<g><path style="opacity:1" fill="#0c0c0c" d="M 152.5,217.5 C 154.5,217.5 156.5,217.5 158.5,217.5C 163.167,217.5 167.833,217.5 172.5,217.5C 172.5,231.833 172.5,246.167 172.5,260.5C 165.159,260.666 157.826,260.5 150.5,260C 145.699,256.201 141.199,252.034 137,247.5C 136.501,251.152 136.335,254.818 136.5,258.5C 134.833,258.5 133.167,258.5 131.5,258.5C 131.5,251.833 131.5,245.167 131.5,238.5C 138.167,238.5 144.833,238.5 151.5,238.5C 151.5,240.167 151.5,241.833 151.5,243.5C 148.15,243.335 144.817,243.502 141.5,244C 144.977,247.567 148.644,250.9 152.5,254C 157.155,254.499 161.821,254.666 166.5,254.5C 166.5,244.167 166.5,233.833 166.5,223.5C 156.5,223.5 146.5,223.5 136.5,223.5C 136.5,221.5 136.5,219.5 136.5,217.5C 141.833,217.5 147.167,217.5 152.5,217.5 Z"/></g>
<g><path style="opacity:1" fill="#db9957" d="M 125.5,210.5 C 125.5,216.167 125.5,221.833 125.5,227.5C 127.167,227.5 128.833,227.5 130.5,227.5C 128.735,228.461 126.735,228.795 124.5,228.5C 124.5,226.833 124.5,225.167 124.5,223.5C 124.5,221.5 124.5,219.5 124.5,217.5C 124.198,214.941 124.532,212.607 125.5,210.5 Z"/></g>
<g><path style="opacity:1" fill="#808080" d="M 222.5,264.5 C 222.5,253.5 222.5,242.5 222.5,231.5C 220.833,231.5 219.167,231.5 217.5,231.5C 217.5,242.5 217.5,253.5 217.5,264.5C 216.505,253.346 216.172,242.012 216.5,230.5C 218.833,230.5 221.167,230.5 223.5,230.5C 223.828,242.012 223.495,253.346 222.5,264.5 Z"/></g>
<g><path style="opacity:1" fill="#000000" d="M 222.5,264.5 C 220.833,264.5 219.167,264.5 217.5,264.5C 217.5,253.5 217.5,242.5 217.5,231.5C 219.167,231.5 220.833,231.5 222.5,231.5C 222.5,242.5 222.5,253.5 222.5,264.5 Z"/></g>
<g><path style="opacity:1" fill="#0f0f0f" d="M 209.5,245.5 C 209.5,246.833 209.5,248.167 209.5,249.5C 204.968,249.182 200.634,249.515 196.5,250.5C 196.5,253.5 196.5,256.5 196.5,259.5C 201.5,259.5 206.5,259.5 211.5,259.5C 211.5,261.167 211.5,262.833 211.5,264.5C 204.5,264.5 197.5,264.5 190.5,264.5C 190.5,253.5 190.5,242.5 190.5,231.5C 197.5,231.5 204.5,231.5 211.5,231.5C 211.5,233.167 211.5,234.833 211.5,236.5C 206.5,236.5 201.5,236.5 196.5,236.5C 196.5,239.5 196.5,242.5 196.5,245.5C 200.833,245.5 205.167,245.5 209.5,245.5 Z"/></g>
<g><path style="opacity:1" fill="#040404" d="M 262.5,254.5 C 264.21,259.183 267.543,260.683 272.5,259C 274.141,257.871 275.141,256.371 275.5,254.5C 276.492,247.352 276.825,240.019 276.5,232.5C 278.167,232.5 279.833,232.5 281.5,232.5C 281.5,239.833 281.5,247.167 281.5,254.5C 278.6,263.951 272.266,267.118 262.5,264C 258.865,261.904 256.865,258.737 256.5,254.5C 256.5,247.167 256.5,239.833 256.5,232.5C 258.167,232.5 259.833,232.5 261.5,232.5C 261.175,240.019 261.508,247.352 262.5,254.5 Z"/></g>
<g><path style="opacity:1" fill="#838383" d="M 262.5,254.5 C 261.508,247.352 261.175,240.019 261.5,232.5C 259.833,232.5 258.167,232.5 256.5,232.5C 256.5,239.833 256.5,247.167 256.5,254.5C 255.508,247.018 255.175,239.352 255.5,231.5C 257.833,231.5 260.167,231.5 262.5,231.5C 262.5,239.167 262.5,246.833 262.5,254.5 Z"/></g>
<g><path style="opacity:1" fill="#757575" d="M 281.5,254.5 C 281.5,247.167 281.5,239.833 281.5,232.5C 279.833,232.5 278.167,232.5 276.5,232.5C 276.825,240.019 276.492,247.352 275.5,254.5C 275.5,246.833 275.5,239.167 275.5,231.5C 277.833,231.5 280.167,231.5 282.5,231.5C 282.825,239.352 282.492,247.018 281.5,254.5 Z"/></g>
<g><path style="opacity:1" fill="#545454" d="M 151.5,238.5 C 144.833,238.5 138.167,238.5 131.5,238.5C 131.5,245.167 131.5,251.833 131.5,258.5C 130.509,251.687 130.175,244.687 130.5,237.5C 137.687,237.175 144.687,237.509 151.5,238.5 Z"/></g>
<g><path style="opacity:1" fill="#101010" d="M 234.5,251.5 C 237.833,251.5 241.167,251.5 244.5,251.5C 244.768,249.901 244.434,248.568 243.5,247.5C 240.833,244.833 238.167,244.833 235.5,247.5C 233.389,248.742 231.389,248.742 229.5,247.5C 233.899,239.814 239.899,238.481 247.5,243.5C 248.584,244.665 249.417,245.998 250,247.5C 250.499,253.157 250.666,258.824 250.5,264.5C 248.5,264.5 246.5,264.5 244.5,264.5C 244.557,260.867 243.557,260.7 241.5,264C 239.833,264.167 238.167,264.333 236.5,264.5C 230.256,264.696 227.756,261.696 229,255.5C 230.018,253.072 231.852,251.738 234.5,251.5 Z"/></g>
<g><path style="opacity:1" fill="#111111" d="M 298.5,240.5 C 309.666,240.821 314.166,246.487 312,257.5C 308.903,264.132 303.736,266.299 296.5,264C 295.667,263.167 294.833,262.333 294,261.5C 293.501,265.821 293.334,270.154 293.5,274.5C 291.5,274.5 289.5,274.5 287.5,274.5C 287.5,263.5 287.5,252.5 287.5,241.5C 289.5,241.5 291.5,241.5 293.5,241.5C 293.351,242.552 293.517,243.552 294,244.5C 295.397,242.93 296.897,241.596 298.5,240.5 Z"/></g>
<g><path style="opacity:1" fill="#f6f6f6" d="M 296.5,246.5 C 306.818,246.322 309.151,250.489 303.5,259C 297.372,261.029 294.038,258.863 293.5,252.5C 293.628,250.045 294.628,248.045 296.5,246.5 Z"/></g>
<g><path style="opacity:1" fill="#888888" d="M 229.5,247.5 C 231.389,248.742 233.389,248.742 235.5,247.5C 234.848,248.725 233.681,249.392 232,249.5C 230.833,249.167 229.667,248.833 228.5,248.5C 228.624,247.893 228.957,247.56 229.5,247.5 Z"/></g>
<g><path style="opacity:1" fill="#4a4a4a" d="M 209.5,245.5 C 210.451,246.919 210.784,248.585 210.5,250.5C 205.833,250.5 201.167,250.5 196.5,250.5C 200.634,249.515 204.968,249.182 209.5,249.5C 209.5,248.167 209.5,246.833 209.5,245.5 Z"/></g>
<g><path style="opacity:1" fill="#6b6b6b" d="M 243.5,247.5 C 244.434,248.568 244.768,249.901 244.5,251.5C 241.167,251.5 237.833,251.5 234.5,251.5C 237.287,250.523 240.287,250.19 243.5,250.5C 243.5,249.5 243.5,248.5 243.5,247.5 Z"/></g>
<g><path style="opacity:1" fill="#eeeeee" d="M 236.5,254.5 C 238.833,254.5 241.167,254.5 243.5,254.5C 243.649,258.017 241.982,260.017 238.5,260.5C 234.133,259.633 233.466,257.633 236.5,254.5 Z"/></g>
<g><path style="opacity:1" fill="#c6c6c6" d="M 117.5,223.5 C 117.5,239.167 117.5,254.833 117.5,270.5C 136.008,270.17 154.341,270.503 172.5,271.5C 153.833,271.5 135.167,271.5 116.5,271.5C 116.17,255.325 116.504,239.325 117.5,223.5 Z"/></g>
</svg>
